<svg width="20" height="20" viewBox="0 0 450 450" fill="none" xmlns="http://www.w3.org/2000/svg">
<circle cx="225" cy="225" r="222.5" fill="#681A55" stroke="white" stroke-width="5"/>
<g clip-path="url(#clip0_309_20)">
<path d="M225.45 231.75C239.815 231.75 252.505 235.26 262.815 239.85C272.333 244.17 278.325 253.89 278.325 264.42V279H172.575V264.51C172.575 253.89 178.568 244.17 188.085 239.94C198.396 235.26 211.086 231.75 225.45 231.75ZM154.95 234C164.644 234 172.575 225.9 172.575 216C172.575 206.1 164.644 198 154.95 198C145.257 198 137.325 206.1 137.325 216C137.325 225.9 145.257 234 154.95 234ZM164.909 243.9C161.648 243.36 158.387 243 154.95 243C146.226 243 137.942 244.89 130.452 248.22C123.93 251.1 119.7 257.58 119.7 264.87V279H159.357V264.51C159.357 257.04 161.384 250.02 164.909 243.9ZM295.95 234C305.644 234 313.575 225.9 313.575 216C313.575 206.1 305.644 198 295.95 198C286.257 198 278.325 206.1 278.325 216C278.325 225.9 286.257 234 295.95 234ZM331.2 264.87C331.2 257.58 326.97 251.1 320.449 248.22C312.959 244.89 304.675 243 295.95 243C292.514 243 289.253 243.36 285.992 243.9C289.517 250.02 291.544 257.04 291.544 264.51V279H331.2V264.87ZM225.45 171C240.079 171 251.888 183.06 251.888 198C251.888 212.94 240.079 225 225.45 225C210.822 225 199.013 212.94 199.013 198C199.013 183.06 210.822 171 225.45 171Z" fill="white"/>
</g>
<defs>
<clipPath id="clip0_309_20">
<rect width="211.5" height="216" fill="white" transform="translate(119.7 117)"/>
</clipPath>
</defs>
</svg>
